HIERARCHY
ROOT joint_Root
{
	OFFSET 0.0 0.0 0.0
	CHANNELS 6 Xposition Yposition Zposition Zrotation Xrotation Yrotation 
	JOINT Hips
	{
		OFFSET 4.5925 91.4895 -427.239
		CHANNELS 6 Xposition Yposition Zposition Zrotation Xrotation Yrotation 
		JOINT Spine
		{
			OFFSET 15.7357 0.0 0.0
			CHANNELS 6 Xposition Yposition Zposition Zrotation Xrotation Yrotation 
			JOINT Chest
			{
				OFFSET 8.98455 -0.406207 0.0
				CHANNELS 6 Xposition Yposition Zposition Zrotation Xrotation Yrotation 
				JOINT Neck
				{
					OFFSET 16.3773 0.0 0.0
					CHANNELS 6 Xposition Yposition Zposition Zrotation Xrotation Yrotation 
					JOINT Head
					{
						OFFSET 6.45672 0.0 0.0
						CHANNELS 6 Xposition Yposition Zposition Zrotation Xrotation Yrotation 
						End Site
						{
							OFFSET 0.0 0.0 0.0
						}
					}
				}
				JOINT Shoulder_L
				{
					OFFSET 12.9942 -0.242716 4.98039
					CHANNELS 6 Xposition Yposition Zposition Zrotation Xrotation Yrotation 
					JOINT UpperArm_L
					{
						OFFSET 5.34809 0.0 0.0
						CHANNELS 6 Xposition Yposition Zposition Zrotation Xrotation Yrotation 
						JOINT LowerArm_L
						{
							OFFSET 24.3286 1.87007e-05 0.0
							CHANNELS 6 Xposition Yposition Zposition Zrotation Xrotation Yrotation 
							JOINT Hand_L
							{
								OFFSET 22.2916 0.0 0.0
								CHANNELS 6 Xposition Yposition Zposition Zrotation Xrotation Yrotation 
								End Site
								{
									OFFSET 0.0 0.0 0.0
								}
							}
						}
					}
				}
				JOINT Shoulder_R
				{
					OFFSET 12.9945 -0.242716 -4.98039
					CHANNELS 6 Xposition Yposition Zposition Zrotation Xrotation Yrotation 
					JOINT UpperArm_R
					{
						OFFSET -5.34813 0.0 0.0
						CHANNELS 6 Xposition Yposition Zposition Zrotation Xrotation Yrotation 
						JOINT LowerArm_R
						{
							OFFSET -24.3289 0.000322201 0.0
							CHANNELS 6 Xposition Yposition Zposition Zrotation Xrotation Yrotation 
							JOINT Hand_R
							{
								OFFSET -22.2915 -0.000108084 0.0
								CHANNELS 6 Xposition Yposition Zposition Zrotation Xrotation Yrotation 
								End Site
								{
									OFFSET 0.0 0.0 0.0
								}
							}
						}
					}
				}
			}
		}
		JOINT UpperLeg_L
		{
			OFFSET -2.19248 -6.46944 0.0
			CHANNELS 6 Xposition Yposition Zposition Zrotation Xrotation Yrotation 
			JOINT LowerLeg_L
			{
				OFFSET 39.0811 0.0 -1.23785e-05
				CHANNELS 6 Xposition Yposition Zposition Zrotation Xrotation Yrotation 
				JOINT Foot_L
				{
					OFFSET 40.9854 0.0 -1.26872e-05
					CHANNELS 6 Xposition Yposition Zposition Zrotation Xrotation Yrotation 
					JOINT Toes_L
					{
						OFFSET 11.7543 0.0 0.0
						CHANNELS 6 Xposition Yposition Zposition Zrotation Xrotation Yrotation 
						End Site
						{
							OFFSET 0.0 0.0 0.0
						}
					}
				}
			}
		}
		JOINT UpperLeg_R
		{
			OFFSET -2.19251 6.46944 0.0
			CHANNELS 6 Xposition Yposition Zposition Zrotation Xrotation Yrotation 
			JOINT LowerLeg_R
			{
				OFFSET -39.0811 -0.00228153 -0.0401928
				CHANNELS 6 Xposition Yposition Zposition Zrotation Xrotation Yrotation 
				JOINT Foot_R
				{
					OFFSET -40.9854 0.0 0.0
					CHANNELS 6 Xposition Yposition Zposition Zrotation Xrotation Yrotation 
					JOINT Toes_R
					{
						OFFSET -11.7543 0.0 0.0
						CHANNELS 6 Xposition Yposition Zposition Zrotation Xrotation Yrotation 
						End Site
						{
							OFFSET 0.0 0.0 0.0
						}
					}
				}
			}
		}
	}
}
MOTION
Frames:	5
Frame Time:	0.0333333
0.000000 0.000000 0.000000 0.000000 0.000000 -0.000000 -15.147100 92.441200 79.631000 -88.000700 14.554400 173.151000 15.735700 0.000005 -0.000001 138.338000 82.625700 -139.450000 8.984550 -0.406207 -0.000000 2.185950 11.065000 -2.439370 16.377300 -0.000001 -0.000001 -6.342960 -0.053224 -1.050340 6.456720 -0.000001 -0.000000 -10.643000 -4.893140 -0.303497 12.994200 -0.242716 4.980390 -86.565500 -7.689810 -65.843200 5.348090 -0.000007 -0.000001 -69.836500 31.522500 26.683600 24.328600 0.000019 0.000005 13.745700 -3.810770 -105.199000 22.291600 -0.000001 0.000005 -0.344744 5.409240 -3.237640 12.994500 -0.242716 -4.980390 89.792600 1.517190 -82.215600 -5.348130 -0.000001 -0.000004 -61.270900 40.771100 -18.509400 -24.328900 0.000322 -0.000009 -9.719040 2.876310 -106.333000 -22.291500 -0.000108 -0.000004 20.763500 5.579570 -10.186800 -2.192480 -6.469440 -0.000000 -175.975000 1.218290 -26.900600 39.081100 -0.000007 -0.000012 0.009597 -0.023441 22.264100 40.985400 -0.000006 -0.000013 2.099140 -0.407701 -67.969300 11.754300 -0.000000 0.000003 -0.005728 -0.068349 -19.358300 -2.192510 6.469440 -0.000001 173.712000 13.071700 -171.409000 -39.081100 -0.002282 -0.040193 0.238402 -0.238351 44.611300 -40.985400 0.000008 0.000006 5.344130 2.117690 -41.009800 -11.754300 -0.000006 -0.000006 -0.020597 -0.170575 -23.543200
0.000000 0.000000 0.000000 0.000000 0.000000 -0.000000 -14.466800 90.927000 70.740700 -88.200200 13.042900 173.545000 15.735700 0.000005 -0.000001 132.671000 82.801700 -134.147000 8.984550 -0.406207 -0.000000 2.986400 9.810090 -3.210900 16.377300 -0.000001 -0.000001 -6.383060 -0.116931 -1.095140 6.456720 -0.000001 -0.000000 -12.167400 -4.810450 -0.933456 12.994200 -0.242716 4.980390 -87.188800 -6.240660 -65.689200 5.348090 -0.000007 -0.000001 -67.539200 26.588600 22.553200 24.328600 0.000019 0.000005 13.374000 -4.120610 -106.818000 22.291600 -0.000001 0.000005 0.138107 5.402240 -3.008600 12.994500 -0.242716 -4.980390 89.601700 2.777580 -81.842300 -5.348130 -0.000001 -0.000004 -61.911200 40.825400 -15.092200 -24.328900 0.000322 -0.000009 -10.419500 1.990760 -100.699000 -22.291500 -0.000108 -0.000004 21.320900 5.581470 -10.292200 -2.192480 -6.469440 -0.000000 -178.967000 -3.667210 -31.350100 39.081100 -0.000007 -0.000012 0.145885 -0.278533 27.643900 40.985400 -0.000006 -0.000013 0.634036 3.070100 -66.593800 11.754300 -0.000000 0.000003 -0.007549 -0.084316 -20.009800 -2.192510 6.469440 -0.000001 175.758000 8.564620 -173.137000 -39.081100 -0.002282 -0.040193 0.236602 -0.154109 56.562300 -40.985400 0.000008 0.000006 6.860510 -3.416270 -41.508400 -11.754300 -0.000006 -0.000006 -0.019620 -0.165174 -23.320800
0.000000 0.000000 0.000000 0.000000 0.000000 -0.000000 -14.072200 88.294200 61.961800 -89.801600 9.900300 174.420000 15.735700 0.000005 -0.000001 120.017000 83.165900 -122.113000 8.984550 -0.406207 -0.000000 4.223780 6.891960 -4.444540 16.377300 -0.000001 -0.000001 -6.259280 -0.539058 -1.034580 6.456720 -0.000001 -0.000000 -13.510800 -4.658110 -0.573882 12.994200 -0.242716 4.980390 -88.338100 -3.751520 -66.092600 5.348090 -0.000007 -0.000001 -65.487000 22.246100 16.339200 24.328600 0.000019 0.000005 11.538300 -3.891080 -108.389000 22.291600 -0.000001 0.000005 4.559980 5.424760 -3.738430 12.994500 -0.242716 -4.980390 89.324300 4.400460 -81.263600 -5.348130 -0.000001 -0.000004 -62.994400 39.928200 -10.410500 -24.328900 0.000322 -0.000009 -9.775570 0.813917 -94.706400 -22.291500 -0.000108 -0.000004 21.828200 5.568030 -9.589060 -2.192480 -6.469440 -0.000000 177.902000 -3.992770 -34.354200 39.081100 -0.000007 -0.000012 0.159337 -0.185870 40.604600 40.985400 -0.000006 -0.000013 2.547910 -0.884899 -62.341900 11.754300 -0.000000 0.000003 -0.003030 -0.040943 -18.241900 -2.192510 6.469440 -0.000001 175.373000 8.298390 -177.629000 -39.081100 -0.002282 -0.040193 0.240024 -0.071508 73.207700 -40.985400 0.000008 0.000006 7.903520 -3.180290 -40.164400 -11.754300 -0.000006 -0.000006 -0.018085 -0.156444 -22.961400
0.000000 0.000000 0.000000 0.000000 0.000000 -0.000000 -13.667100 84.868800 53.541800 -90.734300 6.707740 176.511000 15.735700 0.000005 -0.000001 106.601000 82.774500 -108.917000 8.984550 -0.406207 -0.000000 6.183490 4.149250 -4.852760 16.377300 -0.000001 -0.000001 -6.431930 -1.682470 -0.594080 6.456720 -0.000001 -0.000000 -13.451100 -4.017690 -1.056330 12.994200 -0.242716 4.980390 -90.128100 0.336234 -68.681100 5.348090 -0.000007 -0.000001 -63.044100 17.648400 9.308350 24.328600 0.000019 0.000005 9.143420 -3.512820 -110.846000 22.291600 -0.000001 0.000005 8.083900 5.449460 -4.619350 12.994500 -0.242716 -4.980390 88.885700 6.673080 -80.500900 -5.348130 -0.000001 -0.000004 -64.136800 37.407000 -4.183840 -24.328900 0.000322 -0.000009 -9.212660 -0.414258 -87.437800 -22.291500 -0.000108 -0.000004 22.184600 5.585190 -10.468900 -2.192480 -6.469440 -0.000000 177.116000 -0.852518 -33.495600 39.081100 -0.000007 -0.000012 -0.267143 0.188822 54.747500 40.985400 -0.000006 -0.000013 3.298510 -0.176512 -75.233700 11.754300 -0.000000 0.000003 -0.000324 -0.002772 -16.680600 -2.192510 6.469440 -0.000001 175.188000 8.734730 176.167000 -39.081100 -0.002282 -0.040193 0.262692 0.007512 91.677800 -40.985400 0.000008 0.000006 6.069840 -3.566860 -39.279800 -11.754300 -0.000006 -0.000006 -0.017795 -0.154755 -22.891900
0.000000 0.000000 0.000000 0.000000 0.000000 -0.000000 -13.635400 82.583300 45.318300 -92.078700 6.325430 177.618000 15.735700 0.000005 -0.000001 99.772300 82.186400 -102.614000 8.984550 -0.406207 -0.000000 7.712810 2.643050 -5.856240 16.377300 -0.000001 -0.000001 -6.686070 -1.929610 -0.485746 6.456720 -0.000001 -0.000000 -13.852800 -3.766720 -0.802927 12.994200 -0.242716 4.980390 -91.633600 4.365330 -69.458600 5.348090 -0.000007 -0.000001 -61.528900 15.426800 -3.452090 24.328600 0.000019 0.000005 7.423920 -2.687400 -109.791000 22.291600 -0.000001 0.000005 7.634980 5.448300 -4.578770 12.994500 -0.242716 -4.980390 88.393500 8.831860 -79.648200 -5.348130 -0.000001 -0.000004 -64.859300 34.627500 0.869583 -24.328900 0.000322 -0.000009 -6.970990 -1.662450 -76.602200 -22.291500 -0.000108 -0.000004 26.085700 5.620100 -12.631600 -2.192480 -6.469440 -0.000000 175.006000 -0.929261 -28.662000 39.081100 -0.000007 -0.000012 -0.348322 0.198514 60.321500 40.985400 -0.000006 -0.000013 4.008650 -1.115960 -84.641000 11.754300 -0.000000 0.000003 -0.000587 -0.004549 -16.742800 -2.192510 6.469440 -0.000001 174.783000 6.619990 166.247000 -39.081100 -0.002282 -0.040193 0.069136 0.020491 107.367000 -40.985400 0.000008 0.000006 8.105010 -2.253490 -40.020300 -11.754300 -0.000006 -0.000006 -0.017538 -0.153247 -22.829900
